<svg width="25" height="24" viewBox="0 0 25 24" fill="none" xmlns="http://www.w3.org/2000/svg">
<path d="M5.33325 9.5C5.33325 9.5 2.76175 10.5 2.33325 14M19.3333 9.5C19.3333 9.5 21.9048 10.5 22.3333 14M9.33325 9.5C9.33325 9.5 11.7333 10.0835 12.3333 13C12.9333 10.0835 15.3333 9.5 15.3333 9.5M10.3333 17C10.3333 17 8.23325 17.375 7.33325 20M14.3333 17C14.3333 17 16.4333 17.375 17.3333 20" stroke="black" stroke-width="2" stroke-linecap="round"/>
<path d="M12.3333 18C13.714 18 14.8333 16.8807 14.8333 15.5C14.8333 14.1193 13.714 13 12.3333 13C10.9525 13 9.83325 14.1193 9.83325 15.5C9.83325 16.8807 10.9525 18 12.3333 18Z" fill="black" stroke="black" stroke-width="2" stroke-linecap="round" stroke-linejoin="round"/>
<path d="M17.3333 10C18.9901 10 20.3333 8.65685 20.3333 7C20.3333 5.34315 18.9901 4 17.3333 4C15.6764 4 14.3333 5.34315 14.3333 7C14.3333 8.65685 15.6764 10 17.3333 10Z" fill="black" stroke="black" stroke-width="2" stroke-linecap="round" stroke-linejoin="round"/>
<path d="M7.33325 10C8.99011 10 10.3333 8.65685 10.3333 7C10.3333 5.34315 8.99011 4 7.33325 4C5.6764 4 4.33325 5.34315 4.33325 7C4.33325 8.65685 5.6764 10 7.33325 10Z" fill="black" stroke="black" stroke-width="2" stroke-linecap="round" stroke-linejoin="round"/>
</svg>
