<svg width="25" height="24" viewBox="0 0 25 24" fill="none" xmlns="http://www.w3.org/2000/svg">
<path d="M5.66675 20V18H19.6667V20H5.66675ZM5.66675 16.5L4.39175 8.475C4.35842 8.475 4.32075 8.47934 4.27875 8.488C4.23675 8.49667 4.19942 8.50067 4.16675 8.5C3.75008 8.5 3.39608 8.354 3.10475 8.062C2.81342 7.77 2.66742 7.416 2.66675 7C2.66608 6.584 2.81208 6.23 3.10475 5.938C3.39742 5.646 3.75142 5.5 4.16675 5.5C4.58208 5.5 4.93642 5.646 5.22975 5.938C5.52308 6.23 5.66875 6.584 5.66675 7C5.66675 7.11667 5.65408 7.225 5.62875 7.325C5.60342 7.425 5.57442 7.51667 5.54175 7.6L8.66675 9L11.7917 4.725C11.6084 4.59167 11.4584 4.41667 11.3418 4.2C11.2251 3.98334 11.1667 3.75 11.1667 3.5C11.1667 3.08334 11.3127 2.729 11.6047 2.437C11.8967 2.145 12.2507 1.99934 12.6667 2C13.0828 2.00067 13.4371 2.14667 13.7297 2.438C14.0224 2.72934 14.1681 3.08334 14.1667 3.5C14.1667 3.75 14.1084 3.98334 13.9917 4.2C13.8751 4.41667 13.7251 4.59167 13.5417 4.725L16.6667 9L19.7917 7.6C19.7584 7.51667 19.7291 7.425 19.7038 7.325C19.6784 7.225 19.6661 7.11667 19.6667 7C19.6667 6.58334 19.8127 6.229 20.1047 5.937C20.3967 5.645 20.7507 5.49934 21.1667 5.5C21.5828 5.50067 21.9371 5.64667 22.2297 5.938C22.5224 6.22934 22.6681 6.58334 22.6667 7C22.6654 7.41667 22.5198 7.771 22.2297 8.063C21.9397 8.355 21.5854 8.50067 21.1667 8.5C21.1334 8.5 21.0961 8.496 21.0548 8.488C21.0134 8.48 20.9757 8.47567 20.9417 8.475L19.6667 16.5H5.66675Z" fill="black"/>
</svg>
