<svg width="24" height="24" viewBox="0 0 24 24" fill="none" xmlns="http://www.w3.org/2000/svg">
<path d="M5.925 21C5.54167 21 5.171 20.8667 4.813 20.6C4.455 20.3333 4.21733 20.0083 4.1 19.625C3.68333 18.225 3.34167 17.0127 3.075 15.988C2.80833 14.9633 2.59567 14.0633 2.437 13.288C2.27833 12.5127 2.166 11.825 2.1 11.225C2.034 10.625 2.00067 10.05 2 9.5C2 7.96667 2.53333 6.66667 3.6 5.6C4.66667 4.53333 5.96667 4 7.5 4H12.5C12.95 3.4 13.521 2.91667 14.213 2.55C14.905 2.18333 15.6673 2 16.5 2C16.9167 2 17.271 2.146 17.563 2.438C17.855 2.73 18.0007 3.084 18 3.5C18 3.6 17.9873 3.7 17.962 3.8C17.9367 3.9 17.9077 3.99167 17.875 4.075C17.8083 4.25833 17.746 4.44167 17.688 4.625C17.63 4.80833 17.584 5.00833 17.55 5.225L19.825 7.5H21C21.2833 7.5 21.521 7.596 21.713 7.788C21.905 7.98 22.0007 8.21733 22 8.5V13.75C22 13.9667 21.9377 14.1583 21.813 14.325C21.6883 14.4917 21.5173 14.6167 21.3 14.7L19.175 15.4L17.925 19.575C17.7917 20.0083 17.55 20.3543 17.2 20.613C16.85 20.8717 16.45 21.0007 16 21H14C13.45 21 12.9793 20.8043 12.588 20.413C12.1967 20.0217 12.0007 19.5507 12 19H10C10 19.55 9.80433 20.021 9.413 20.413C9.02167 20.805 8.55067 21.0007 8 21H5.925ZM16 11C16.2833 11 16.521 10.904 16.713 10.712C16.905 10.52 17.0007 10.2827 17 10C16.9993 9.71733 16.9033 9.48 16.712 9.288C16.5207 9.096 16.2833 9 16 9C15.7167 9 15.4793 9.096 15.288 9.288C15.0967 9.48 15.0007 9.71733 15 10C14.9993 10.2827 15.0953 10.5203 15.288 10.713C15.4807 10.9057 15.718 11.0013 16 11ZM12 9C12.2833 9 12.521 8.904 12.713 8.712C12.905 8.52 13.0007 8.28267 13 8C12.9993 7.71733 12.9033 7.48 12.712 7.288C12.5207 7.096 12.2833 7 12 7H9C8.71667 7 8.47933 7.096 8.288 7.288C8.09667 7.48 8.00067 7.71733 8 8C7.99933 8.28267 8.09533 8.52033 8.288 8.713C8.48067 8.90567 8.718 9.00133 9 9H12Z" fill="black"/>
</svg>
