<svg width="400" height="225" viewBox="0 0 400 225" fill="none" xmlns="http://www.w3.org/2000/svg">
<mask id="mask0_328_6985" style="mask-type:luminance" maskUnits="userSpaceOnUse" x="132" y="59" width="88" height="105">
<path d="M132.195 59.0059H219.167V163.798H132.195V59.0059Z" fill="white"/>
</mask>
<g mask="url(#mask0_328_6985)">
<path d="M144.927 71.7447C144.425 72.2471 143.936 72.7625 143.458 73.2887C142.981 73.815 142.516 74.3532 142.066 74.9033C141.615 75.4524 141.177 76.0123 140.754 76.583C140.331 77.1538 139.922 77.7354 139.527 78.3256C139.132 78.917 138.751 79.517 138.387 80.1268C138.021 80.7367 137.67 81.3551 137.335 81.9812C137.001 82.6084 136.681 83.2432 136.377 83.8855C136.073 84.5279 135.786 85.1778 135.513 85.8343C135.241 86.4908 134.986 87.1538 134.746 87.8232C134.506 88.4927 134.284 89.1666 134.078 89.8469C133.872 90.5272 133.682 91.2119 133.509 91.902C133.337 92.591 133.18 93.2844 133.041 93.981C132.904 94.6787 132.782 95.3786 132.678 96.0817C132.574 96.7848 132.486 97.4901 132.416 98.1976C132.347 98.904 132.295 99.6136 132.26 100.323C132.225 101.033 132.207 101.744 132.207 102.454C132.207 103.165 132.225 103.875 132.26 104.585C132.295 105.295 132.347 106.004 132.416 106.711C132.486 107.419 132.574 108.123 132.678 108.826C132.782 109.529 132.904 110.23 133.041 110.927C133.18 111.623 133.337 112.317 133.509 113.007C133.682 113.696 133.872 114.38 134.078 115.061C134.284 115.741 134.506 116.416 134.746 117.084C134.986 117.754 135.241 118.417 135.513 119.073C135.786 119.73 136.073 120.38 136.377 121.022C136.681 121.664 137.001 122.299 137.335 122.926C137.67 123.553 138.021 124.171 138.387 124.781C138.751 125.391 139.132 125.991 139.527 126.582C139.922 127.172 140.331 127.754 140.754 128.325C141.177 128.895 141.615 129.455 142.066 130.005C142.516 130.554 142.981 131.093 143.458 131.619C143.936 132.146 144.425 132.66 144.927 133.163L175.637 163.871L187.561 151.948L156.852 121.238C156.545 120.931 156.246 120.616 155.953 120.294C155.661 119.972 155.378 119.643 155.102 119.307C154.825 118.97 154.558 118.628 154.299 118.279C154.041 117.93 153.79 117.574 153.548 117.212C153.307 116.851 153.074 116.484 152.85 116.111C152.627 115.738 152.413 115.36 152.208 114.976C152.003 114.593 151.808 114.205 151.622 113.812C151.436 113.419 151.26 113.022 151.094 112.62C150.927 112.218 150.77 111.813 150.624 111.403C150.477 110.994 150.342 110.581 150.215 110.165C150.089 109.749 149.973 109.33 149.868 108.908C149.762 108.487 149.667 108.063 149.582 107.637C149.497 107.21 149.423 106.782 149.359 106.352C149.295 105.922 149.242 105.49 149.199 105.057C149.157 104.626 149.124 104.192 149.104 103.757C149.082 103.323 149.071 102.888 149.071 102.454C149.071 102.019 149.082 101.585 149.104 101.15C149.124 100.716 149.157 100.283 149.199 99.8502C149.242 99.4172 149.295 98.9864 149.359 98.5557C149.423 98.126 149.497 97.6974 149.582 97.2709C149.667 96.8445 149.762 96.4213 149.868 95.9992C149.973 95.5771 150.089 95.1583 150.215 94.7427C150.342 94.3261 150.477 93.9137 150.624 93.5047C150.77 93.0956 150.927 92.6898 151.094 92.2883C151.26 91.8857 151.436 91.4886 151.622 91.0958C151.808 90.703 152.003 90.3146 152.208 89.9315C152.413 89.5474 152.627 89.1698 152.85 88.7966C153.074 88.4244 153.307 88.0565 153.548 87.6952C153.79 87.3339 154.041 86.978 154.299 86.6297C154.558 86.2803 154.825 85.9374 155.102 85.601C155.378 85.2657 155.661 84.9359 155.953 84.6136C156.246 84.2924 156.545 83.9767 156.852 83.6696C157.159 83.3625 157.474 83.063 157.796 82.7712C158.118 82.4793 158.448 82.195 158.784 81.9194C159.12 81.6438 159.463 81.3758 159.812 81.1164C160.161 80.8582 160.516 80.6075 160.878 80.3666C161.239 80.1247 161.607 79.8925 161.979 79.6689C162.352 79.4454 162.73 79.2306 163.114 79.0266C163.497 78.8215 163.886 78.6262 164.278 78.4396C164.671 78.254 165.068 78.0782 165.471 77.9111C165.872 77.7451 166.277 77.5889 166.687 77.4424C167.096 77.2959 167.509 77.1592 167.925 77.0333C168.341 76.9074 168.76 76.7913 169.182 76.6861C169.603 76.5798 170.027 76.4854 170.454 76.3996C170.88 76.315 171.309 76.2412 171.738 76.1772C172.168 76.1132 172.6 76.06 173.033 76.0177C173.465 75.9754 173.899 75.9428 174.333 75.9222C174.767 75.9005 175.202 75.8896 175.636 75.8896C176.071 75.8896 176.505 75.9005 176.94 75.9222C177.374 75.9428 177.807 75.9754 178.24 76.0177C178.673 76.06 179.104 76.1132 179.533 76.1772C179.964 76.2412 180.392 76.315 180.818 76.4007C181.245 76.4854 181.669 76.5808 182.091 76.6861C182.512 76.7913 182.931 76.9074 183.347 77.0333C183.763 77.1603 184.176 77.2959 184.585 77.4424C184.995 77.5889 185.4 77.7462 185.802 77.9122C186.203 78.0782 186.6 78.2551 186.993 78.4406C187.387 78.6262 187.775 78.8215 188.159 79.0266C188.542 79.2317 188.92 79.4454 189.293 79.6689C189.666 79.8925 190.033 80.1258 190.394 80.3666C190.756 80.6086 191.111 80.8593 191.46 81.1175C191.81 81.3768 192.152 81.6438 192.488 81.9205C192.824 82.1961 193.153 82.4793 193.475 82.7712C193.798 83.0641 194.112 83.3636 194.419 83.6707C194.728 83.9778 195.027 84.2924 195.319 84.6147C195.611 84.937 195.894 85.2657 196.171 85.6021C196.446 85.9385 196.713 86.2814 196.973 86.6297C197.231 86.9791 197.482 87.335 197.724 87.6963C197.964 88.0576 198.197 88.4244 198.42 88.7976C198.644 89.1709 198.859 89.5485 199.064 89.9315C199.268 90.3156 199.464 90.7041 199.65 91.0969C199.835 91.4897 200.011 91.8868 200.178 92.2883C200.344 92.6898 200.5 93.0956 200.647 93.5047C200.793 93.9148 200.93 94.3271 201.056 94.7427C201.182 95.1594 201.298 95.5782 201.404 95.9992C201.509 96.4213 201.605 96.8456 201.689 97.272C201.774 97.6985 201.848 98.126 201.912 98.5568C201.976 98.9864 202.029 99.4172 202.071 99.8502C202.115 100.283 202.146 100.716 202.168 101.15C202.189 101.585 202.199 102.019 202.199 102.454C202.199 102.888 202.189 103.323 202.168 103.757C202.146 104.192 202.115 104.624 202.071 105.057C202.029 105.49 201.976 105.921 201.912 106.352C201.848 106.782 201.774 107.21 201.689 107.637C201.605 108.063 201.509 108.486 201.404 108.908C201.298 109.33 201.182 109.749 201.056 110.165C200.93 110.58 200.793 110.994 200.647 111.403C200.5 111.812 200.344 112.218 200.178 112.619C200.011 113.021 199.835 113.418 199.65 113.811C199.464 114.205 199.268 114.592 199.064 114.976C198.859 115.359 198.644 115.738 198.42 116.11C198.197 116.483 197.964 116.85 197.724 117.211C197.482 117.574 197.231 117.928 196.973 118.278C196.713 118.627 196.446 118.969 196.171 119.305C195.894 119.642 195.611 119.971 195.319 120.293C195.027 120.615 194.728 120.93 194.419 121.237C193.287 122.369 192.062 123.389 190.744 124.299C189.427 125.208 188.038 125.993 186.58 126.651C185.12 127.31 183.614 127.833 182.061 128.219C180.507 128.606 178.93 128.85 177.333 128.952L193.945 145.563L206.345 133.163C206.848 132.66 207.338 132.146 207.816 131.619C208.292 131.093 208.757 130.554 209.208 130.005C209.658 129.455 210.095 128.895 210.519 128.325C210.942 127.754 211.352 127.172 211.746 126.582C212.141 125.991 212.522 125.391 212.886 124.781C213.252 124.171 213.602 123.553 213.938 122.926C214.273 122.299 214.592 121.664 214.896 121.022C215.2 120.38 215.487 119.73 215.76 119.073C216.032 118.417 216.287 117.754 216.527 117.084C216.766 116.416 216.989 115.741 217.195 115.061C217.401 114.38 217.591 113.696 217.764 113.007C217.936 112.317 218.092 111.623 218.231 110.927C218.369 110.229 218.491 109.529 218.596 108.826C218.7 108.123 218.787 107.419 218.856 106.711C218.926 106.004 218.978 105.295 219.014 104.585C219.048 103.875 219.066 103.165 219.066 102.454C219.066 101.744 219.048 101.033 219.014 100.323C218.978 99.6125 218.926 98.904 218.856 98.1976C218.787 97.4901 218.7 96.7848 218.596 96.0817C218.491 95.3786 218.369 94.6787 218.231 93.981C218.092 93.2844 217.936 92.591 217.764 91.902C217.591 91.2119 217.401 90.5272 217.195 89.8469C216.989 89.1666 216.766 88.4927 216.527 87.8232C216.287 87.1538 216.032 86.4908 215.76 85.8343C215.487 85.1778 215.2 84.5279 214.896 83.8855C214.592 83.2432 214.273 82.6084 213.938 81.9812C213.602 81.3551 213.252 80.7367 212.886 80.1268C212.522 79.517 212.141 78.917 211.746 78.3256C211.352 77.7354 210.943 77.1538 210.519 76.583C210.095 76.0123 209.658 75.4524 209.208 74.9033C208.757 74.3532 208.292 73.815 207.816 73.2887C207.338 72.7625 206.848 72.2471 206.345 71.7447C205.843 71.2423 205.329 70.7529 204.801 70.2755C204.275 69.7981 203.737 69.3337 203.188 68.8834C202.638 68.432 202.078 67.9947 201.507 67.5715C200.936 67.1483 200.355 66.7393 199.765 66.3443C199.173 65.9493 198.573 65.5696 197.963 65.2039C197.354 64.8382 196.736 64.4877 196.109 64.1525C195.482 63.8183 194.847 63.4982 194.205 63.1943C193.562 62.8905 192.912 62.603 192.256 62.3306C191.599 62.0583 190.936 61.8033 190.267 61.5635C189.599 61.3237 188.924 61.1012 188.243 60.8951C187.563 60.6889 186.878 60.499 186.189 60.3265C185.499 60.154 184.806 59.9977 184.109 59.8599C183.411 59.721 182.712 59.5995 182.008 59.4953C181.305 59.3912 180.601 59.3033 179.894 59.2338C179.186 59.1644 178.478 59.1123 177.767 59.0776C177.057 59.0429 176.348 59.0244 175.637 59.0244C174.926 59.0244 174.215 59.0429 173.506 59.0776C172.795 59.1123 172.087 59.1644 171.38 59.2338C170.673 59.3033 169.967 59.3912 169.264 59.4953C168.561 59.5995 167.861 59.721 167.164 59.8599C166.467 59.9977 165.774 60.154 165.085 60.3265C164.395 60.499 163.71 60.6889 163.03 60.8951C162.349 61.1012 161.675 61.3237 161.006 61.5635C160.336 61.8033 159.673 62.0583 159.017 62.3306C158.36 62.603 157.711 62.8905 157.068 63.1943C156.426 63.4982 155.791 63.8183 155.164 64.1525C154.538 64.4877 153.919 64.8382 153.309 65.2039C152.7 65.5696 152.1 65.9493 151.508 66.3443C150.918 66.7393 150.336 67.1483 149.766 67.5715C149.195 67.9947 148.635 68.432 148.086 68.8834C147.536 69.3337 146.998 69.7981 146.471 70.2755C145.945 70.7529 145.43 71.2423 144.927 71.7447Z" fill="#402B09"/>
</g>
<path d="M174.386 84.9619C173.342 85.0368 172.313 85.2039 171.3 85.4621C170.285 85.7215 169.303 86.0676 168.351 86.5027C167.399 86.9368 166.494 87.4522 165.635 88.049C164.775 88.6457 163.976 89.3141 163.236 90.0542C162.905 90.3851 162.587 90.7291 162.284 91.0861C161.98 91.443 161.692 91.8109 161.417 92.1907C161.144 92.5704 160.885 92.9611 160.642 93.3615C160.399 93.7618 160.174 94.1709 159.963 94.5897C159.754 95.0086 159.561 95.435 159.385 95.869C159.209 96.3031 159.051 96.7436 158.911 97.1907C158.77 97.6366 158.647 98.0891 158.543 98.5448C158.439 99.0016 158.353 99.4617 158.286 99.925C158.218 100.388 158.169 100.854 158.139 101.322C158.109 101.788 158.098 102.257 158.104 102.725C158.112 103.193 158.138 103.66 158.182 104.126C158.227 104.593 158.291 105.056 158.372 105.517C158.455 105.979 158.555 106.435 158.673 106.889C158.791 107.341 158.928 107.79 159.082 108.231C159.237 108.674 159.409 109.109 159.597 109.538C159.787 109.965 159.993 110.386 160.216 110.797L171.096 97.1592L178.027 107.637L183.306 101.313L190.926 111.031C191.158 110.617 191.373 110.195 191.57 109.764C191.768 109.335 191.948 108.896 192.109 108.45C192.272 108.006 192.415 107.554 192.541 107.097C192.667 106.641 192.773 106.179 192.862 105.714C192.95 105.248 193.02 104.78 193.07 104.309C193.12 103.838 193.151 103.365 193.163 102.892C193.175 102.417 193.167 101.944 193.141 101.471C193.114 100.998 193.069 100.526 193.005 100.057C192.939 99.5876 192.856 99.1221 192.754 98.6588C192.651 98.1965 192.53 97.7386 192.39 97.2861C192.251 96.8326 192.093 96.3866 191.917 95.9461C191.742 95.5066 191.548 95.0737 191.338 94.6494C191.127 94.2252 190.899 93.8096 190.655 93.4038C190.41 92.998 190.15 92.603 189.874 92.2178C189.597 91.8326 189.306 91.4604 188.998 91.0991C188.692 90.7378 188.371 90.3894 188.036 90.0542C187.593 89.6115 187.128 89.1926 186.64 88.7998C186.151 88.407 185.645 88.0403 185.117 87.7017C184.59 87.3632 184.046 87.0529 183.486 86.7729C182.925 86.4919 182.351 86.2423 181.764 86.0231C181.177 85.8039 180.58 85.6173 179.973 85.4621C179.366 85.307 178.752 85.1855 178.133 85.0965C177.512 85.0064 176.889 84.9511 176.262 84.9283C175.636 84.9066 175.011 84.9174 174.386 84.9619Z" fill="#F86F0A"/>
<path d="M238.602 96.9888V117.193C238.602 121.102 239.198 123.927 240.39 125.665C241.585 127.401 243.377 128.269 245.768 128.269C248.702 128.269 250.928 127.374 252.447 125.583C253.969 123.789 254.73 121.371 254.73 118.33V96.9888H264.505V136.09H255.216V129.819H255.056C252.775 134.652 248.784 137.067 243.081 137.067C238.682 137.067 235.206 135.751 232.651 133.117C230.099 130.485 228.823 126.778 228.823 121.997V96.9888H238.602Z" fill="#402B09"/>
<path d="M294.888 96.0122C300.753 96.0122 305.274 97.9675 308.451 101.876C311.628 105.785 313.217 110.891 313.217 117.193V119.962H283.399C283.726 122.786 284.853 125.04 286.78 126.724C288.707 128.406 291.083 129.246 293.907 129.246C298.036 129.246 301.539 127.481 304.419 123.951L311.424 129.246C307.188 134.461 301.676 137.067 294.888 137.067C288.913 137.067 283.875 135.168 279.775 131.368C275.675 127.566 273.625 122.622 273.625 116.537C273.625 110.456 275.675 105.515 279.775 101.715C283.875 97.9132 288.913 96.0122 294.888 96.0122ZM303.438 112.631C303.386 109.535 302.436 107.213 300.587 105.665C298.74 104.118 296.352 103.343 293.421 103.343C290.487 103.343 288.178 104.198 286.494 105.908C284.81 107.618 283.778 109.86 283.399 112.631H303.438Z" fill="#402B09"/>
<path d="M335.692 96.0122C342.1 96.0122 346.773 97.9946 349.707 101.958L343.188 107.822C341.231 105.16 338.679 103.829 335.531 103.829C333.957 103.829 332.613 104.21 331.499 104.971C330.385 105.732 329.828 106.737 329.828 107.987C329.828 109.888 331.757 111.245 335.614 112.058L339.117 112.874C343.405 113.798 346.444 115.224 348.235 117.154C350.029 119.081 350.926 121.537 350.926 124.523C350.926 128.326 349.405 131.367 346.365 133.647C343.323 135.928 339.196 137.067 333.982 137.067C327.411 137.067 322.36 135.057 318.83 131.038L325.349 124.931C327.033 126.778 328.581 128.041 329.993 128.721C331.405 129.398 332.951 129.736 334.633 129.736C336.427 129.736 337.962 129.33 339.238 128.517C340.514 127.701 341.152 126.614 341.152 125.257C341.152 123.029 339.143 121.454 335.123 120.53C329.909 119.336 326.649 118.399 325.345 117.722C324.043 117.043 322.998 116.228 322.211 115.279C321.423 114.327 320.867 113.295 320.54 112.184C320.216 111.071 320.054 109.888 320.054 108.638C320.054 104.782 321.534 101.713 324.494 99.4323C327.454 97.1526 331.187 96.0122 335.692 96.0122Z" fill="#402B09"/>
<path d="M371.78 85.665V96.9888H382.531V105.296H371.78V122.649C371.78 126.723 373.599 128.76 377.236 128.76C379.681 128.76 381.446 128.352 382.531 127.536V135.765C380.684 136.633 378.105 137.067 374.793 137.067C370.284 137.067 367.025 136.076 365.014 134.094C363.005 132.113 362.002 128.623 362.002 123.625V105.296H353.938V96.9888H362.002V85.665H371.78Z" fill="#402B09"/>
<path d="M80.9702 108.049C80.9702 117.011 78.0774 124.315 72.2939 129.963C66.5094 135.612 59.1104 138.435 50.0978 138.435C41.2436 138.435 33.9791 135.652 28.3052 130.085C22.6303 124.518 19.7939 117.281 19.7939 108.375C19.7939 102.51 21.0548 97.2569 23.5787 92.615C26.1047 87.9709 29.7158 84.3456 34.412 81.7382C39.1104 79.1319 44.5292 77.8276 50.6663 77.8276C59.6268 77.8276 66.9174 80.5707 72.537 86.0568C78.1587 91.5407 80.9702 98.8715 80.9702 108.049ZM30.5448 107.723C30.5448 113.968 32.3775 119.099 36.0439 123.118C39.7093 127.138 44.4749 129.147 50.3408 129.147C56.1503 129.147 60.9159 127.18 64.6377 123.244C68.3584 119.307 70.2193 114.133 70.2193 107.723C70.2193 101.803 68.3714 96.8891 64.6768 92.9795C60.9843 89.0679 56.1785 87.1115 50.2584 87.1115C44.6648 87.1115 39.9806 89.0407 36.2045 92.8971C32.4307 96.7545 30.5448 101.697 30.5448 107.723Z" fill="#F86F0A"/>
<path d="M111.27 96.8901C115.723 96.8901 119.21 98.2215 121.734 100.883C124.26 103.543 125.523 107.235 125.523 111.96V136.968H115.749V116.686C115.749 109.354 113.359 105.688 108.579 105.688C105.81 105.688 103.623 106.584 102.021 108.375C100.42 110.166 99.6204 112.528 99.6204 115.462V136.968H89.8418V97.8667H99.13V104.138H99.2906C101.518 99.3066 105.511 96.8901 111.27 96.8901Z" fill="#F86F0A"/>
</svg>
