<svg width="12" height="12" viewBox="0 0 12 12" fill="none" xmlns="http://www.w3.org/2000/svg">
<path fill-rule="evenodd" clip-rule="evenodd" d="M4.889 10.5H7.111C8.6715 10.5 9.452 10.5 10.0125 10.1325C10.2544 9.97406 10.4627 9.7695 10.6255 9.53049C11 8.98049 11 8.21399 11 6.68199C11 5.14999 11 4.38349 10.6255 3.83349C10.4627 3.59449 10.2544 3.38992 10.0125 3.23149C9.6525 2.99499 9.2015 2.91049 8.511 2.88049C8.1815 2.88049 7.898 2.63549 7.8335 2.31799C7.78421 2.08543 7.65613 1.87701 7.47092 1.72797C7.28571 1.57893 7.05473 1.4984 6.817 1.49999H5.183C4.689 1.49999 4.2635 1.84249 4.1665 2.31799C4.102 2.63549 3.8185 2.88049 3.489 2.88049C2.799 2.91049 2.348 2.99549 1.9875 3.23149C1.74577 3.38997 1.53764 3.59454 1.375 3.83349C1 4.38349 1 5.14949 1 6.68199C1 8.21449 1 8.97999 1.3745 9.53049C1.5365 9.76849 1.7445 9.97299 1.9875 10.1325C2.548 10.5 3.3285 10.5 4.889 10.5ZM6 4.63649C4.8495 4.63649 3.9165 5.55199 3.9165 6.68149C3.9165 7.81099 4.85 8.72799 6 8.72799C7.15 8.72799 8.0835 7.81199 8.0835 6.68249C8.0835 5.55299 7.15 4.63649 6 4.63649ZM6 5.45449C5.31 5.45449 4.75 6.00399 4.75 6.68199C4.75 7.35949 5.31 7.90899 6 7.90899C6.69 7.90899 7.25 7.35949 7.25 6.68199C7.25 6.00449 6.69 5.45449 6 5.45449ZM8.361 5.04549C8.361 4.81949 8.5475 4.63649 8.778 4.63649H9.333C9.563 4.63649 9.75 4.81949 9.75 5.04549C9.74894 5.15494 9.70448 5.25949 9.62639 5.33618C9.54829 5.41287 9.44295 5.45543 9.3335 5.45449H8.778C8.72376 5.45502 8.66995 5.44486 8.61964 5.42459C8.56933 5.40432 8.52351 5.37434 8.48479 5.33636C8.44607 5.29838 8.4152 5.25315 8.39396 5.20324C8.37272 5.15333 8.36152 5.09973 8.361 5.04549Z" fill="white"/>
</svg>
